<svg width="32" height="32" viewBox="0 0 32 32" fill="none" xmlns="http://www.w3.org/2000/svg">
  <circle cx="16" cy="16" r="16" fill="#2E3148"/>
  <path fill-rule="evenodd" clip-rule="evenodd" d="M16 27C9.92487 27 5 22.0751 5 16C5 9.92487 9.92487 5 16 5C22.0751 5 27 9.92487 27 16C27 22.0751 22.0751 27 16 27ZM16 24.5C20.6944 24.5 24.5 20.6944 24.5 16C24.5 11.3056 20.6944 7.5 16 7.5C11.3056 7.5 7.5 11.3056 7.5 16C7.5 20.6944 11.3056 24.5 16 24.5Z" fill="url(#paint0_linear_1_2)"/>
  <path d="M19.0502 11.5C19.5842 11.5 20.0189 11.9213 20.0493 12.4534L20.0502 12.5V13.4984C20.7372 13.6133 21.3813 13.8776 21.9522 14.2542C22.1659 14.3947 22.3511 14.5584 22.5134 14.7287C22.8294 15.0578 22.8205 15.5798 22.4937 15.8974L22.4134 15.9686L21.7004 16.6793C21.3714 17.0093 20.8429 17.016 20.5066 16.6982L20.4375 16.6269C20.3391 16.5277 20.2288 16.439 20.1082 16.3617C19.662 16.0936 19.1443 15.9399 18.599 15.9195C17.3673 15.8766 16.3506 16.8429 16.3053 18.0745C16.2629 19.2282 17.1265 20.1991 18.2715 20.2997C18.2732 20.2999 18.2748 20.3001 18.2765 20.3003C18.8445 20.3346 19.3965 20.1802 19.8603 19.8704C19.9741 19.7933 20.0775 19.7055 20.1692 19.6096C20.4897 19.2736 21.0145 19.2618 21.3508 19.5733L21.4183 19.6415L22.1314 20.3522C22.4603 20.6822 22.4671 21.2142 22.1482 21.5514L22.0764 21.6209C21.9167 21.787 21.7344 21.9402 21.5307 22.076C20.9623 22.4581 20.3168 22.7236 19.6265 22.8339L19.6241 23.5C19.6241 24.0341 19.2028 24.4688 18.6706 24.4991L18.624 24.5H17.624C17.09 24.5 16.6553 24.0787 16.6249 23.5466L16.624 23.5V22.8506C16.0179 22.7453 15.4401 22.5336 14.9216 22.2306C14.6857 22.1 14.4633 21.9508 14.2565 21.7847C13.9213 21.5013 13.8951 20.978 14.1924 20.6638L14.2698 20.5892L14.9828 19.8785C15.2997 19.5596 15.8236 19.54 16.1716 19.8363L16.2415 19.8992C16.3539 20.0039 16.4774 20.0981 16.6103 20.1799C17.0643 20.4627 17.5845 20.6262 18.124 20.6504C19.3649 20.7006 20.4013 19.7376 20.4465 18.4967C20.4886 17.3407 19.6325 16.3694 18.4882 16.268C18.4869 16.268 18.4855 16.2676 18.4838 16.2676C17.9158 16.2336 17.3636 16.3879 16.8998 16.6977C16.7793 16.779 16.669 16.8716 16.5698 16.9732C16.2384 17.3191 15.704 17.3274 15.3678 17.0098L15.3022 16.9431L14.5892 16.2324C14.2715 15.9136 14.257 15.3932 14.5599 15.0566L14.6266 14.9903C14.7816 14.8334 14.9619 14.6904 15.1653 14.5654C15.7277 14.1972 16.3608 13.9413 17.0343 13.8298L17.0366 12.5C17.0366 11.9659 17.4579 11.5313 17.9901 11.5009L18.0366 11.5H19.0502Z" fill="url(#paint1_linear_1_2)"/>
  <defs>
    <linearGradient id="paint0_linear_1_2" x1="5" y1="16" x2="27" y2="16" gradientUnits="userSpaceOnUse">
      <stop stop-color="#6F7390"/>
      <stop offset="1" stop-color="#B6BAD2"/>
    </linearGradient>
    <linearGradient id="paint1_linear_1_2" x1="14.25" y1="18" x2="22.75" y2="18" gradientUnits="userSpaceOnUse">
      <stop stop-color="#7174D3"/>
      <stop offset="1" stop-color="#C0C4FC"/>
    </linearGradient>
  </defs>
</svg> 