<svg width="32" height="32" viewBox="0 0 32 32" fill="none" xmlns="http://www.w3.org/2000/svg">
  <circle cx="16" cy="16" r="16" fill="#000000"/>
  <path d="M20.3545 8.91699L16.8545 14.3451C16.7831 14.457 16.8184 14.6046 16.9303 14.676L23.6392 18.7917C23.6749 18.8151 23.7224 18.8033 23.7458 18.7677L24.9004 16.9896C24.9355 16.9375 24.9121 16.8659 24.8541 16.8425L20.63 14.3451C20.5188 14.2796 20.5188 14.1203 20.63 14.0548L24.9709 11.5339C25.029 11.5046 25.0524 11.4329 25.0173 11.3809L23.9808 9.74682C23.9515 9.70535 23.8916 9.69942 23.8502 9.73502L20.3545 8.91699Z" fill="url(#paint0_linear_1_2)"/>
  <path d="M8.05714 9.75279L9.09364 11.3869C9.1287 11.4389 9.20447 11.4449 9.26253 11.4155L13.6386 8.85316C13.7498 8.78766 13.8794 8.87686 13.8735 9.00964L13.6386 22.7519C13.6327 22.8847 13.4798 22.9679 13.3686 22.8966L9.26253 20.1922C9.20447 20.1569 9.12277 20.1628 9.09364 20.2149L8.03932 21.873C8.01019 21.925 8.01613 21.9908 8.05714 22.026L11.5529 22.844L16.3825 23.0843C16.4996 23.0902 16.582 22.9679 16.5116 22.8729L8.01019 9.70546C7.97511 9.6581 7.92299 9.65217 7.88197 9.69364L8.05714 9.75279Z" fill="url(#paint1_linear_1_2)"/>
  <defs>
    <linearGradient id="paint0_linear_1_2" x1="20.6211" y1="8.91699" x2="20.6211" y2="18.803" gradientUnits="userSpaceOnUse">
      <stop stop-color="#66A8FF"/>
      <stop offset="1" stop-color="#89C1FF"/>
    </linearGradient>
    <linearGradient id="paint1_linear_1_2" x1="11.5057" y1="8.78711" x2="11.5057" y2="23.0845" gradientUnits="userSpaceOnUse">
      <stop stop-color="#66A8FF"/>
      <stop offset="1" stop-color="#89C1FF"/>
    </linearGradient>
  </defs>
</svg> 