<svg width="32" height="32" viewBox="0 0 32 32" fill="none" xmlns="http://www.w3.org/2000/svg">
  <circle cx="16" cy="16" r="16" fill="#E6007A"/>
  <path fill-rule="evenodd" clip-rule="evenodd" d="M16 27C17.9385 27 19.9121 26.5344 21.6923 25.6368C23.4726 24.7391 25.0045 23.4387 26.1575 21.8591C27.3106 20.2795 28.0469 18.4689 28.3075 16.5669C28.5681 14.6648 28.345 12.7285 27.6565 10.9211C26.968 9.11377 25.8353 7.48669 24.3579 6.17676C22.8805 4.86683 21.0998 3.91284 19.1788 3.39342C17.2578 2.87401 15.2499 2.80326 13.2967 3.18652C11.3434 3.56979 9.49855 4.39642 7.91852 5.60005C7.16374 6.18765 6.47883 6.85922 5.88 7.59944C5.31492 8.30098 4.82883 9.06329 4.42894 9.87088C3.39366 11.9327 2.99725 14.2559 3.29038 16.5521C3.58351 18.8483 4.55373 21.0143 6.09051 22.7905C7.62729 24.5667 9.66593 25.8768 11.9499 26.5697C14.234 27.2625 16.6714 27.307 19 26.7C20.0538 26.4308 21.0648 26.0236 22 25.4909C21.5553 25.2145 21.1383 24.8945 20.7576 24.5352C19.6345 24.9928 18.4357 25.2561 17.2103 25.3162C16.0161 25.3767 14.8191 25.2292 13.6729 24.8807C12.5268 24.5321 11.4501 23.9882 10.4949 23.2741C9.53961 22.56 8.72208 21.687 8.08074 20.6939C7.43939 19.7008 6.9841 18.6036 6.73879 17.45C6.49348 16.2964 6.46241 15.1064 6.64754 13.941C6.83267 12.7756 7.23083 11.6549 7.82173 10.6373C8.41264 9.61969 9.18672 8.72209 10.104 7.99218C11.0213 7.26227 12.0679 6.7117 13.1853 6.36598C14.3028 6.02026 15.4722 5.883 16.6322 5.9597C17.7921 6.03641 18.9247 6.32576 19.9751 6.81271C21.0254 7.29965 21.9761 7.97633 22.7801 8.80952C23.5841 9.64272 24.2283 10.6178 24.6798 11.6857C25.1313 12.7536 25.3822 13.8957 25.4198 15.0573C25.4575 16.2188 25.2812 17.3749 24.8995 18.4705C24.5179 19.5661 23.9375 20.5828 23.1864 21.4726C22.4353 22.3623 21.528 23.1103 20.5076 23.6762C19.8407 23.0379 19.3414 22.2545 19.048 21.391C19.8322 21.0026 20.527 20.4485 21.0777 19.7657C21.6758 19.0138 22.0721 18.1287 22.2312 17.1904C22.3904 16.252 22.3075 15.2922 21.9904 14.3948C21.6732 13.4974 21.1321 12.6917 20.4175 12.0591C19.703 11.4266 18.8413 10.9891 17.9176 10.7853C16.9939 10.5815 16.0389 10.6183 15.1326 10.8922C14.2262 11.1661 13.4003 11.6685 12.7299 12.3517C12.0596 13.035 11.5688 13.8764 11.3031 14.7966C11.0375 15.7168 11.0057 16.6858 11.21 17.6216C11.4142 18.5574 11.8473 19.4288 12.4676 20.1599C13.0879 20.891 13.8739 21.4558 14.7547 21.8024C15.6355 22.149 16.5831 22.2668 17.5153 22.145C18.4475 22.0233 19.3335 21.6657 20.0949 21.1055C20.1797 21.8694 20.4195 22.6071 20.7971 23.2761C20.1353 23.7052 19.4209 24.0499 18.6718 24.2995C17.7792 24.5867 16.8444 24.7361 15.9048 24.7417C14.9652 24.7472 14.0285 24.6089 13.1328 24.3321C12.2371 24.0552 11.3954 23.6438 10.6423 23.115C9.88921 22.5861 9.23526 21.9465 8.7069 21.2216C8.17854 20.4968 7.78253 19.6978 7.53665 18.8522C7.29077 18.0067 7.19893 17.1267 7.26525 16.2509C7.33157 15.3751 7.55489 14.5157 7.92515 13.7108C8.29541 12.9058 8.80726 12.1681 9.43638 11.5294C10.0655 10.8907 10.7998 10.3606 11.6084 9.96238C12.4169 9.56415 13.2883 9.30486 14.1796 9.19596C15.0708 9.08706 15.9706 9.13021 16.8448 9.32337C17.719 9.51653 18.5549 9.85657 19.3143 10.3286C20.0736 10.8006 20.7444 11.3971 21.2955 12.0909C21.8465 12.7847 22.2693 13.5652 22.5433 14.3978C22.8173 15.2305 22.9378 16.1019 22.8989 16.9748C22.86 17.8477 22.6624 18.7059 22.3151 19.5124C22.1006 19.9939 21.8363 20.4504 21.5267 20.8746C21.2915 21.2009 21.0329 21.5061 20.7576 21.7941C21.1267 22.1738 21.5479 22.5049 22.0097 22.7782C23.4883 20.9928 24.3254 18.7721 24.3904 16.4703C24.4554 14.1685 23.7454 11.9044 22.3636 10.0447C20.9818 8.18507 19.0086 6.83302 16.7626 6.19697C14.5166 5.56092 12.1293 5.67413 9.95268 6.51885C7.77602 7.36358 5.93414 8.89451 4.73089 10.8828C3.52764 12.8711 3.02737 15.1998 3.30819 17.5007C3.58901 19.8016 4.63641 21.9544 6.28789 23.6226C7.93936 25.2908 10.1014 26.3816 12.4233 26.7112C14.7451 27.0408 17.1234 26.5878 19.1878 25.4158C19.9072 25.0199 20.5792 24.5436 21.1932 23.9978C19.9621 22.78 19.2307 21.1376 19.1479 19.4055C18.533 19.9223 17.7938 20.2758 17.0124 20.4363C16.231 20.5967 15.4274 20.5596 14.6626 20.3278C13.8979 20.0961 13.1947 19.6762 12.6057 19.1017C12.0166 18.5272 11.5586 17.8159 11.2702 17.0282C10.9819 16.2405 10.8713 15.3989 10.9473 14.5642C11.0232 13.7295 11.2836 12.923 11.7091 12.2002C12.1346 11.4775 12.7142 10.8571 13.4035 10.3827C14.0929 9.90835 14.8758 9.59255 15.6935 9.46134C16.5112 9.33013 17.3445 9.38689 18.1347 9.62773C18.9249 9.86857 19.6534 10.2875 20.2683 10.8556C20.8832 11.4236 21.3698 12.1264 21.6943 12.9125C22.0189 13.6986 22.1733 14.5494 22.1472 15.4044C22.1211 16.2593 21.9149 17.0987 21.5434 17.8628C21.1719 18.6268 20.644 19.2939 19.9977 19.8192C20.0414 20.9736 20.4783 22.0818 21.2404 22.9685C21.9095 23.5877 22.6797 24.108 23.5255 24.5088C24.3598 23.8104 25.0855 22.9905 25.6788 22.0764C26.5528 20.739 27.1402 19.2443 27.4074 17.682C27.6747 16.1197 27.616 14.5203 27.2348 12.9828C26.8536 11.4453 26.1587 10.0012 25.1933 8.74095C24.2279 7.48068 23.0105 6.42882 21.6165 5.64761C20.2226 4.8664 18.6822 4.37274 17.0916 4.19785C15.501 4.02295 13.894 4.17007 12.3639 4.63042C10.8339 5.09077 9.41599 5.85574 8.19584 6.8752C6.97569 7.89466 5.97808 9.1466 5.26087 10.554C4.54366 11.9614 4.12167 13.4957 4.02024 15.0675C3.91881 16.6394 4.14032 18.2148 4.67109 19.7019C5.20186 21.189 6.03094 22.5584 7.10887 23.73C8.1868 24.9015 9.48957 25.8523 10.9414 26.5243C12.3932 27.1964 13.9635 27.5751 15.5573 27.6368C17.1511 27.6985 18.7439 27.4423 20.2454 26.885C21.7469 26.3277 23.1277 25.4808 24.3056 24.3898C25.4834 23.2989 26.4331 21.9828 27.0994 20.5237C27.7658 19.0645 28.1351 17.4898 28.1863 15.8863C28.2376 14.2829 27.9697 12.6845 27.3975 11.1863C26.8253 9.68818 25.9607 8.32 24.8544 7.16062C23.748 6.00125 22.4225 5.07234 20.9593 4.42872C19.4961 3.7851 17.9246 3.43822 16.3321 3.40965C14.7396 3.38108 13.1577 3.67129 11.6746 4.26407C10.1916 4.85684 8.83702 5.7398 7.693 6.86808C6.54898 7.99636 5.6396 9.3379 5.02291 10.8178C4.40621 12.2978 4.09203 13.8869 4.099 15.4854C4.10597 17.0839 4.43402 18.6697 5.0635 20.1436C5.69298 21.6174 6.61367 22.9504 7.76665 24.068C8.9196 25.1856 10.2815 26.0555 11.7695 26.6338C13.2576 27.212 14.8421 27.4869 16.4348 27.4424C18.0275 27.3979 19.5936 27.0349 21.0502 26.3767C22.5067 25.7186 23.8253 24.7786 24.9252 23.6107C26.025 22.4427 26.8831 21.07 27.4462 19.5695C28.0092 18.069 28.2652 16.4623 28.1986 14.8521C28.1319 13.2419 27.7439 11.6637 27.059 10.2065C26.3741 8.74932 25.4069 7.44222 24.2144 6.36039C23.0219 5.27856 21.6259 4.44301 20.1071 3.90172C18.5883 3.36043 16.9771 3.12427 15.3645 3.20529C13.7519 3.2863 12.1689 3.68298 10.7082 4.37431C9.2475 5.06563 7.938 6.03711 6.85887 7.23C5.77975 8.42289 4.95235 9.81323 4.42184 11.3167C3.89134 12.8202 3.66957 14.4091 3.77016 15.9945C3.87074 17.5799 4.29151 19.1328 5.00969 20.5642C5.72787 21.9957 6.7279 23.2781 7.95035 24.3356C9.17281 25.3931 10.5933 26.2064 12.1325 26.7322C13.6717 27.2581 15.2974 27.4855 16.9276 27.4C18.5577 27.3145 20.1552 26.9175 21.6311 26.2323C22.4564 25.8417 23.2303 25.3601 23.9364 24.7975C23.4021 24.4407 22.9094 24.021 22.4697 23.5486C21.9695 23.9266 21.4369 24.26 20.8777 24.5454C19.4217 25.2353 17.8337 25.5766 16.2353 25.543C14.6368 25.5093 13.0644 25.1015 11.6374 24.3545C10.2104 23.6075 8.97048 22.5433 8.0152 21.2461C7.05992 19.9489 6.41371 18.4565 6.13218 16.8812C5.85066 15.3059 5.943 13.6888 6.39961 12.1584C6.85622 10.628 7.66468 9.23054 8.76013 8.07427C9.85558 6.918 11.2077 6.03913 12.7082 5.4994C14.2087 4.95968 15.8194 4.77408 17.4112 4.95856C19.003 5.14305 20.5304 5.69307 21.8733 6.5656C23.2161 7.43813 24.3387 8.60887 25.1546 9.99222C25.9704 11.3756 26.4563 12.93 26.5728 14.5311C26.6894 16.1323 26.4334 17.741 25.8252 19.2363C25.217 20.7316 24.2737 22.0749 23.0683 23.156C22.7349 23.4644 22.3791 23.7507 22.0032 24.0126C20.1536 25.0962 18.0331 25.6659 15.8677 25.6558C13.7024 25.6456 11.588 25.0559 9.74949 23.9457C7.91098 22.8355 6.4171 21.2471 5.42766 19.3457C4.43822 17.4442 3.99275 15.3033 4.13933 13.1652C4.28591 11.0272 5.01873 8.96989 6.26202 7.22107C7.50531 5.47225 9.20849 4.09659 11.1944 3.23824C13.1803 2.37989 15.3673 2.07078 17.5196 2.33999C19.6719 2.6092 21.7055 3.44639 23.4294 4.77052C25.1533 6.09466 26.5081 7.86128 27.3547 9.88566C28.2013 11.91 28.5093 14.1258 28.2475 16.3116C27.9858 18.4973 27.1639 20.5756 25.8592 22.3386C24.5546 24.1016 22.8157 25.4848 20.8085 26.3646C18.8014 27.2444 16.5978 27.5865 14.4219 27.3591C12.246 27.1318 10.1643 26.342 8.37927 25.0672C6.5942 23.7923 5.16396 22.0759 4.21775 20.0984C3.27153 18.1208 2.83903 15.9454 2.9599 13.7731C3.08078 11.6008 3.75081 9.49735 4.90586 7.67025C6.06091 5.84315 7.66389 4.3608 9.55901 3.34853C11.4541 2.33626 13.5841 1.82527 15.7409 1.86161C17.8977 1.89796 20.0062 2.48036 21.8636 3.55636C23.721 4.63236 25.2722 6.16534 26.3702 8.03016C27.4682 9.89497 28.0756 12.0203 28.141 14.1959C28.2064 16.3715 27.7275 18.5266 26.7499 20.4474C25.7724 22.3682 24.3278 23.9884 22.5707 25.1512C20.8135 26.314 18.8052 26.9767 16.7246 27.0769C14.6441 27.1772 12.5771 26.7123 10.7183 25.7233C8.85943 24.7343 7.27148 23.2514 6.0995 21.4172C4.92752 19.583 4.20822 17.4618 4.00916 15.2594C3.8101 13.0571 4.1374 10.8379 4.96399 8.80633C5.79057 6.77474 7.09104 4.99629 8.74694 3.62152C10.4028 2.24675 12.3622 1.31624 14.4577 0.91C16.5531 0.503753 18.7155 0.638891 20.7482 1.30383C22.7809 1.96877 24.6177 3.14203 26.0882 4.7213C27.5586 6.30058 28.6118 8.23606 29.1511 10.3354C29.6904 12.4347 29.7001 14.6351 29.1794 16.7387C28.6586 18.8424 27.6225 20.7863 26.1664 22.3785C24.7103 23.9708 22.8837 25.1601 20.8567 25.8431C18.8297 26.5261 16.6686 26.6802 14.5698 26.2904C12.471 25.9007 10.5036 24.9799 8.84136 23.6151C7.17908 22.2503 5.87019 20.4838 5.03258 18.4605C4.19496 16.4371 3.85608 14.2232 4.04472 12.0223C4.23336 9.82145 4.94424 7.69675 6.11658 5.83604C7.28892 3.97532 8.88911 2.43659 10.77 1.3596C12.6508 0.282618 14.7634 -0.178963 16.9016 0.0516592" fill="white"/>
</svg> 