<svg width="32" height="32" viewBox="0 0 32 32" fill="none" xmlns="http://www.w3.org/2000/svg">
  <circle cx="16" cy="16" r="16" fill="#8247E5"/>
  <path d="M21.0998 12.8603C20.6586 12.6002 20.0965 12.6002 19.6287 12.8603L17.108 14.3091L15.4023 15.2242L12.8816 16.6731C12.4404 16.9332 11.8783 16.9332 11.4104 16.6731L9.51123 15.5539C9.07004 15.2938 8.77734 14.8194 8.77734 14.3091V12.097C8.77734 11.5867 9.04336 11.1123 9.51123 10.8522L11.3838 9.75926C11.825 9.49915 12.3871 9.49915 12.855 9.75926L14.7275 10.8522C15.1687 11.1123 15.4614 11.5867 15.4614 12.097V13.5459L17.1672 12.607V11.1581C17.1672 10.6478 16.9012 10.1734 16.4333 9.91331L12.8816 7.84438C12.4404 7.58427 11.8783 7.58427 11.4104 7.84438L7.7999 9.91331C7.33203 10.1734 7.06602 10.6478 7.06602 11.1581V15.2479C7.06602 15.7582 7.33203 16.2326 7.7999 16.4927L11.4371 18.5617C11.8783 18.8218 12.4404 18.8218 12.9082 18.5617L15.4289 17.1391L17.1347 16.2003L19.6554 14.7778C20.0965 14.5177 20.6586 14.5177 21.1265 14.7778L22.999 15.8707C23.4402 16.1308 23.7329 16.6052 23.7329 17.1155V19.3276C23.7329 19.8379 23.4669 20.3123 22.999 20.5724L21.1265 21.6653C20.6853 21.9254 20.1232 21.9254 19.6554 21.6653L17.7829 20.5724C17.3417 20.3123 17.049 19.8379 17.049 19.3276V17.8787L15.3433 18.8176V20.2664C15.3433 20.7767 15.6093 21.2511 16.0772 21.5112L19.7144 23.5802C20.1556 23.8403 20.7177 23.8403 21.1855 23.5802L24.8227 21.5112C25.2639 21.2511 25.5566 20.7767 25.5566 20.2664V16.1766C25.5566 15.6663 25.2905 15.1919 24.8227 14.9318L21.0998 12.8603Z" fill="white"/>
</svg> 