<svg width="32" height="32" viewBox="0 0 32 32" fill="none" xmlns="http://www.w3.org/2000/svg">
  <circle cx="16" cy="16" r="16" fill="#000000"/>
  <path d="M9.594 19.3C9.68 19.217 9.793 19.162 9.915 19.146H25.004C25.209 19.146 25.312 19.39 25.167 19.531L22.405 22.27C22.32 22.354 22.207 22.409 22.085 22.424H6.996C6.791 22.424 6.688 22.181 6.833 22.039L9.594 19.301V19.3Z" fill="url(#paint0_linear_1_2)"/>
  <path d="M9.595 9.73C9.687 9.646 9.8 9.591 9.916 9.576H25.005C25.21 9.576 25.313 9.819 25.168 9.961L22.406 12.7C22.321 12.784 22.208 12.839 22.086 12.854H6.997C6.792 12.854 6.689 12.611 6.834 12.469L9.595 9.73Z" fill="url(#paint1_linear_1_2)"/>
  <path d="M22.405 14.5C22.32 14.416 22.207 14.361 22.085 14.346H6.996C6.791 14.346 6.688 14.589 6.833 14.731L9.594 17.47C9.68 17.554 9.793 17.609 9.915 17.624H25.004C25.209 17.624 25.312 17.381 25.167 17.239L22.405 14.5Z" fill="url(#paint2_linear_1_2)"/>
  <defs>
    <linearGradient id="paint0_linear_1_2" x1="24.4864" y1="8.98235" x2="13.7693" y2="26.3413" gradientUnits="userSpaceOnUse">
      <stop stop-color="#00FFA3"/>
      <stop offset="1" stop-color="#DC1FFF"/>
    </linearGradient>
    <linearGradient id="paint1_linear_1_2" x1="20.4551" y1="6.97429" x2="9.73799" y2="24.3333" gradientUnits="userSpaceOnUse">
      <stop stop-color="#00FFA3"/>
      <stop offset="1" stop-color="#DC1FFF"/>
    </linearGradient>
    <linearGradient id="paint2_linear_1_2" x1="22.4551" y1="7.97429" x2="11.738" y2="25.3333" gradientUnits="userSpaceOnUse">
      <stop stop-color="#00FFA3"/>
      <stop offset="1" stop-color="#DC1FFF"/>
    </linearGradient>
  </defs>
</svg> 